<?xml version="1.0" encoding="utf-8"?>
<!-- Generator: Adobe Illustrator 25.2.0, SVG Export Plug-In . SVG Version: 6.00 Build 0)  -->
<svg version="1.1" id="圖層_1" xmlns="http://www.w3.org/2000/svg" xmlns:xlink="http://www.w3.org/1999/xlink" x="0px" y="0px"
	 viewBox="0 0 22.73 58.72" style="enable-background:new 0 0 22.73 58.72;" xml:space="preserve">
<style type="text/css">
	.st0{fill:none;stroke:#000000;stroke-linecap:round;stroke-linejoin:round;stroke-miterlimit:10;}
</style>
<g>
	<path class="st0" d="M11.84,38.1c1.2-6.23,2.08-7.08,8.59-8.23c0.2-0.04,0.35-0.21,0.35-0.42s-0.15-0.39-0.35-0.42
		c-6.51-1.15-7.39-2-8.59-8.23c-0.04-0.2-0.22-0.35-0.42-0.35c-0.21,0-0.38,0.15-0.42,0.35c-1.2,6.23-2.08,7.08-8.59,8.23
		c-0.2,0.04-0.35,0.21-0.35,0.42c0,0.21,0.15,0.39,0.35,0.42c6.51,1.15,7.39,2,8.59,8.23c0.04,0.2,0.22,0.35,0.42,0.35
		C11.62,38.45,11.8,38.3,11.84,38.1z"/>
	<path class="st0" d="M11.67,56.24c0.72-3.74,1.25-4.25,5.15-4.94c0.12-0.02,0.21-0.13,0.21-0.25c0-0.12-0.09-0.23-0.21-0.25
		c-3.9-0.69-4.43-1.2-5.15-4.94c-0.02-0.12-0.13-0.21-0.25-0.21c-0.12,0-0.23,0.09-0.25,0.21c-0.72,3.74-1.25,4.25-5.15,4.94
		c-0.12,0.02-0.21,0.13-0.21,0.25c0,0.12,0.09,0.23,0.21,0.25c3.9,0.69,4.43,1.2,5.15,4.94c0.02,0.12,0.13,0.21,0.25,0.21
		C11.54,56.45,11.65,56.36,11.67,56.24z"/>
	<path class="st0" d="M11.67,13.04c0.72-3.74,1.25-4.25,5.15-4.94c0.12-0.02,0.21-0.13,0.21-0.25c0-0.12-0.09-0.23-0.21-0.25
		c-3.9-0.69-4.43-1.2-5.15-4.94c-0.02-0.12-0.13-0.21-0.25-0.21c-0.12,0-0.23,0.09-0.25,0.21C10.45,6.4,9.92,6.9,6.01,7.59
		C5.89,7.62,5.8,7.72,5.8,7.85c0,0.12,0.09,0.23,0.21,0.25c3.9,0.69,4.43,1.2,5.15,4.94c0.02,0.12,0.13,0.21,0.25,0.21
		C11.54,13.25,11.65,13.16,11.67,13.04z"/>
</g>
</svg>
