<?xml version="1.0" encoding="utf-8"?>
<!-- Generator: Adobe Illustrator 25.2.0, SVG Export Plug-In . SVG Version: 6.00 Build 0)  -->
<svg version="1.1" id="圖層_1" xmlns="http://www.w3.org/2000/svg" xmlns:xlink="http://www.w3.org/1999/xlink" x="0px" y="0px"
	 viewBox="0 0 498.61 486.84" style="enable-background:new 0 0 498.61 486.84;" xml:space="preserve">
<style type="text/css">
	.st0{fill:#FFFFFF;stroke:#231815;stroke-linecap:round;stroke-linejoin:round;stroke-miterlimit:10;}
	.st1{fill:#FFFFFF;stroke:#040000;stroke-linecap:round;stroke-linejoin:round;stroke-miterlimit:10;}
	.st2{fill:none;stroke:#231815;stroke-linecap:round;stroke-linejoin:round;stroke-miterlimit:10;}
</style>
<g>
	<ellipse class="st0" cx="249.31" cy="244.1" rx="241.85" ry="237.48"/>
	<g>
		<path class="st1" d="M132.59,222.26c0-11.76,1.56-22.44,4.69-32.03c3.12-9.6,7.51-17.8,13.17-24.59
			c5.65-6.79,12.37-12.05,20.15-15.78c7.78-3.72,16.39-5.58,25.84-5.58c9.31,0,17.89,1.86,25.74,5.58
			c7.85,3.73,14.57,8.99,20.15,15.78c5.59,6.79,9.94,14.99,13.07,24.59c3.12,9.6,4.69,20.28,4.69,32.03
			c0,11.75-1.56,22.43-4.69,32.03c-3.13,9.6-7.48,17.83-13.07,24.68c-5.59,6.86-12.31,12.15-20.15,15.87
			c-7.85,3.72-16.43,5.58-25.74,5.58c-9.45,0-18.06-1.86-25.84-5.58c-7.78-3.72-14.5-9.02-20.15-15.87
			c-5.66-6.85-10.04-15.09-13.17-24.68C134.15,244.69,132.59,234.01,132.59,222.26z M171.29,222.26c0,6.53,0.6,12.47,1.8,17.83
			c1.19,5.36,2.89,9.99,5.08,13.91c2.2,3.92,4.82,6.96,7.88,9.11c3.06,2.16,6.52,3.24,10.37,3.24c3.73,0,7.15-1.08,10.28-3.24
			c3.12-2.15,5.75-5.19,7.88-9.11c2.13-3.92,3.79-8.55,4.99-13.91c1.2-5.36,1.79-11.3,1.79-17.83c0-6.4-0.6-12.31-1.79-17.74
			c-1.2-5.42-2.86-10.05-4.99-13.91c-2.13-3.85-4.75-6.86-7.88-9.01c-3.13-2.16-6.55-3.24-10.28-3.24c-3.86,0-7.32,1.08-10.37,3.24
			c-3.06,2.15-5.69,5.16-7.88,9.01c-2.19,3.86-3.89,8.49-5.08,13.91C171.89,209.95,171.29,215.86,171.29,222.26z"/>
		<path class="st1" d="M302.18,181.11h-21.95V148.6h61.05v147.72h-39.11V181.11z"/>
	</g>
	<line class="st2" x1="158.61" y1="362.84" x2="340" y2="362.84"/>
</g>
</svg>
