<?xml version="1.0" encoding="utf-8"?>
<!-- Generator: Adobe Illustrator 25.2.0, SVG Export Plug-In . SVG Version: 6.00 Build 0)  -->
<svg version="1.1" xmlns="http://www.w3.org/2000/svg" xmlns:xlink="http://www.w3.org/1999/xlink" x="0px" y="0px"
	 viewBox="0 0 64.91 67.54" style="enable-background:new 0 0 64.91 67.54;" xml:space="preserve">
<style type="text/css">
	.st0{fill:none;}
	.st1{fill:none;stroke:#231815;stroke-width:0.72;}
	.st2{fill:#FFFFFF;}
	.st3{display:none;}
	.st4{display:inline;}
	.st5{fill:url(#SVGID_1_);stroke:#040000;stroke-linecap:round;stroke-linejoin:round;stroke-miterlimit:10;}
	.st6{fill:url(#SVGID_2_);stroke:#040000;stroke-linecap:round;stroke-linejoin:round;stroke-miterlimit:10;}
	.st7{fill:url(#SVGID_3_);stroke:#040000;stroke-linecap:round;stroke-linejoin:round;stroke-miterlimit:10;}
	.st8{fill:url(#SVGID_4_);stroke:#040000;stroke-linecap:round;stroke-linejoin:round;stroke-miterlimit:10;}
</style>
<pattern  x="-366.93" y="-364.84" width="72" height="72" patternUnits="userSpaceOnUse" id="_x31_0_lpi_10__x25_" viewBox="72.25 -72 72 72" style="overflow:visible;">
	<g>
		<rect x="72.25" y="-72" class="st0" width="72" height="72"/>
		<g>
			<line class="st1" x1="144" y1="-3.6" x2="216.5" y2="-3.6"/>
			<line class="st1" x1="144" y1="-18" x2="216.5" y2="-18"/>
			<line class="st1" x1="144" y1="-32.4" x2="216.5" y2="-32.4"/>
			<line class="st1" x1="144" y1="-46.8" x2="216.5" y2="-46.8"/>
			<line class="st1" x1="144" y1="-61.2" x2="216.5" y2="-61.2"/>
			<line class="st1" x1="144" y1="-10.8" x2="216.5" y2="-10.8"/>
			<line class="st1" x1="144" y1="-25.2" x2="216.5" y2="-25.2"/>
			<line class="st1" x1="144" y1="-39.6" x2="216.5" y2="-39.6"/>
			<line class="st1" x1="144" y1="-54" x2="216.5" y2="-54"/>
			<line class="st1" x1="144" y1="-68.4" x2="216.5" y2="-68.4"/>
		</g>
		<g>
			<rect x="72.25" y="-72" class="st2" width="72" height="72"/>
			<line class="st1" x1="72" y1="-3.6" x2="144.5" y2="-3.6"/>
			<line class="st1" x1="72" y1="-18" x2="144.5" y2="-18"/>
			<line class="st1" x1="72" y1="-32.4" x2="144.5" y2="-32.4"/>
			<line class="st1" x1="72" y1="-46.8" x2="144.5" y2="-46.8"/>
			<line class="st1" x1="72" y1="-61.2" x2="144.5" y2="-61.2"/>
			<line class="st1" x1="72" y1="-10.8" x2="144.5" y2="-10.8"/>
			<line class="st1" x1="72" y1="-25.2" x2="144.5" y2="-25.2"/>
			<line class="st1" x1="72" y1="-39.6" x2="144.5" y2="-39.6"/>
			<line class="st1" x1="72" y1="-54" x2="144.5" y2="-54"/>
			<line class="st1" x1="72" y1="-68.4" x2="144.5" y2="-68.4"/>
		</g>
		<g>
			<line class="st1" x1="0" y1="-3.6" x2="72.5" y2="-3.6"/>
			<line class="st1" x1="0" y1="-18" x2="72.5" y2="-18"/>
			<line class="st1" x1="0" y1="-32.4" x2="72.5" y2="-32.4"/>
			<line class="st1" x1="0" y1="-46.8" x2="72.5" y2="-46.8"/>
			<line class="st1" x1="0" y1="-61.2" x2="72.5" y2="-61.2"/>
			<line class="st1" x1="0" y1="-10.8" x2="72.5" y2="-10.8"/>
			<line class="st1" x1="0" y1="-25.2" x2="72.5" y2="-25.2"/>
			<line class="st1" x1="0" y1="-39.6" x2="72.5" y2="-39.6"/>
			<line class="st1" x1="0" y1="-54" x2="72.5" y2="-54"/>
			<line class="st1" x1="0" y1="-68.4" x2="72.5" y2="-68.4"/>
		</g>
	</g>
</pattern>
<g id="圖層_1" class="st3">
	<g class="st4">
		
			<pattern  id="SVGID_1_" xlink:href="#_x31_0_lpi_10__x25_" patternTransform="matrix(0.8318 -0.7071 0.5824 0.7071 3037.4905 -7261.6689)">
		</pattern>
		<path class="st5" d="M5.93,22.22c0.88-4.73,2.99-8.37,6.32-10.92c3.15-2.53,6.6-3.79,10.35-3.79c3.86,0,6.92,1.27,9.18,3.8
			c2.3,2.55,3.08,6.2,2.33,10.93l-3.99,22.61c-0.92,4.71-2.98,8.34-6.18,10.9c-3.15,2.53-6.66,3.82-10.53,3.87
			c-3.74-0.05-6.74-1.33-9-3.86c-2.44-2.55-3.26-6.18-2.48-10.88L5.93,22.22z M26.95,22.67c0.77-5.14-1.11-7.76-5.63-7.86
			c-4.58,0.09-7.37,2.71-8.37,7.86L9.11,44.45c-0.83,5.19,1.04,7.81,5.6,7.86c4.55-0.05,7.35-2.67,8.4-7.86L26.95,22.67z"/>
		
			<pattern  id="SVGID_2_" xlink:href="#_x31_0_lpi_10__x25_" patternTransform="matrix(0.8318 -0.7071 0.5824 0.7071 3037.4905 -7261.6689)">
		</pattern>
		<path class="st6" d="M29.37,52.3l23.85-25.08c0.93-1.01,1.61-1.95,2.03-2.82c0.33-0.82,0.55-1.6,0.68-2.33
			c0.34-1.93,0.06-3.61-0.85-5.04c-0.96-1.43-2.53-2.17-4.73-2.22c-1.96,0-3.7,0.65-5.23,1.94c-1.57,1.29-2.69,3.11-3.35,5.46h-7.1
			c0.93-4.26,2.94-7.78,6.02-10.57c3.09-2.71,6.55-4.09,10.38-4.14c4.26,0.05,7.48,1.45,9.65,4.22c2.22,2.75,2.98,6.23,2.28,10.45
			c-0.6,3.38-2.12,6.38-4.59,9.01L38.79,51.88h18.98l-1.29,7.31H28.15L29.37,52.3z"/>
	</g>
</g>
<g id="圖層_2">
	<g>
		
			<pattern  id="SVGID_3_" xlink:href="#_x31_0_lpi_10__x25_" patternTransform="matrix(0.8318 -0.7071 0.5824 0.7071 3038.4905 -7261.8809)">
		</pattern>
		<path class="st7" d="M6.93,22c0.88-4.73,2.99-8.37,6.32-10.92c3.15-2.53,6.6-3.79,10.35-3.79c3.86,0,6.92,1.27,9.18,3.8
			c2.3,2.55,3.08,6.2,2.33,10.93l-3.99,22.61c-0.92,4.71-2.98,8.34-6.18,10.9c-3.15,2.53-6.66,3.82-10.53,3.87
			c-3.74-0.05-6.74-1.33-9-3.86c-2.44-2.55-3.26-6.18-2.48-10.88L6.93,22z M27.95,22.46c0.77-5.14-1.11-7.76-5.63-7.86
			c-4.58,0.09-7.37,2.71-8.37,7.86l-3.84,21.77c-0.83,5.19,1.04,7.81,5.6,7.86c4.55-0.05,7.35-2.67,8.4-7.86L27.95,22.46z"/>
		
			<pattern  id="SVGID_4_" xlink:href="#_x31_0_lpi_10__x25_" patternTransform="matrix(0.8318 -0.7071 0.5824 0.7071 3038.4905 -7261.8809)">
		</pattern>
		<path class="st8" d="M44.38,29.34h2.45c2.43,0,4.44-0.69,6.03-2.09c1.58-1.34,2.56-3.09,2.94-5.23c0.34-2.17-0.04-3.95-1.14-5.34
			c-1.1-1.34-2.71-2.04-4.81-2.08c-1.52,0-3,0.51-4.43,1.52c-1.5,1.01-2.66,2.58-3.49,4.7h-7.12c1.03-3.79,3.08-6.99,6.15-9.59
			c3.02-2.58,6.32-3.89,9.89-3.93c4.51,0.05,7.84,1.53,9.98,4.46c2.04,2.86,2.74,6.24,2.1,10.12c-0.35,1.97-1.03,3.87-2.06,5.7
			c-1.14,1.83-2.89,3.46-5.26,4.89c1.91,1.41,3.17,3.09,3.78,5.06c0.57,1.97,0.66,4.03,0.28,6.19c-0.89,4.8-3,8.59-6.32,11.36
			c-3.29,2.84-7.13,4.28-11.52,4.33c-3.38,0-6.18-1.12-8.39-3.37c-2.21-2.25-3.33-5.5-3.35-9.76h7.12c0.33,1.71,0.99,3.1,1.96,4.16
			c0.99,1.11,2.46,1.66,4.41,1.66c2.09,0,3.98-0.74,5.67-2.22c1.7-1.39,2.79-3.36,3.29-5.92c0.41-2.61,0.02-4.63-1.18-6.06
			c-1.19-1.39-2.88-2.08-5.08-2.08h-3.04L44.38,29.34z"/>
	</g>
</g>
</svg>
