<?xml version="1.0" encoding="utf-8"?>
<!-- Generator: Adobe Illustrator 25.2.0, SVG Export Plug-In . SVG Version: 6.00 Build 0)  -->
<svg version="1.1" id="圖層_1" xmlns="http://www.w3.org/2000/svg" xmlns:xlink="http://www.w3.org/1999/xlink" x="0px" y="0px"
	 viewBox="0 0 318.61 89.47" style="enable-background:new 0 0 318.61 89.47;" xml:space="preserve">
<style type="text/css">
	.st0{fill:none;stroke:#373C44;stroke-linecap:round;stroke-linejoin:round;stroke-miterlimit:10;}
</style>
<g>
	<path class="st0" d="M10.53,77.63c100.58,16.82,201.17-17.04,301.75-0.22"/>
	<path class="st0" d="M10.53,21.71C111.11,38.53,211.7,4.68,312.28,21.5"/>
	<path class="st0" d="M10.53,35.69c3,0.5,5.99,0.96,8.99,1.37"/>
	<path class="st0" d="M10.53,49.67c3,0.5,5.99,0.96,8.99,1.37"/>
	<path class="st0" d="M10.53,63.65c3,0.5,5.99,0.96,8.99,1.37"/>
	<path class="st0" d="M303.29,34.1c3,0.41,5.99,0.87,8.99,1.37"/>
	<path class="st0" d="M303.29,48.08c3,0.41,5.99,0.87,8.99,1.37"/>
	<path class="st0" d="M303.29,62.06c3,0.41,5.99,0.87,8.99,1.37"/>
</g>
</svg>
