<?xml version="1.0" encoding="utf-8"?>
<!-- Generator: Adobe Illustrator 25.2.0, SVG Export Plug-In . SVG Version: 6.00 Build 0)  -->
<svg version="1.1" xmlns="http://www.w3.org/2000/svg" xmlns:xlink="http://www.w3.org/1999/xlink" x="0px" y="0px"
	 viewBox="0 0 64.91 67.54" style="enable-background:new 0 0 64.91 67.54;" xml:space="preserve">
<style type="text/css">
	.st0{fill:none;}
	.st1{fill:none;stroke:#231815;stroke-width:0.72;}
	.st2{fill:#FFFFFF;}
	.st3{display:none;}
	.st4{display:inline;}
	.st5{fill:url(#SVGID_1_);stroke:#040000;stroke-linecap:round;stroke-linejoin:round;stroke-miterlimit:10;}
	.st6{fill:url(#SVGID_2_);stroke:#040000;stroke-linecap:round;stroke-linejoin:round;stroke-miterlimit:10;}
	.st7{fill:url(#SVGID_3_);stroke:#040000;stroke-linecap:round;stroke-linejoin:round;stroke-miterlimit:10;}
	.st8{fill:url(#SVGID_4_);stroke:#040000;stroke-linecap:round;stroke-linejoin:round;stroke-miterlimit:10;}
	.st9{fill:url(#SVGID_5_);stroke:#040000;stroke-linecap:round;stroke-linejoin:round;stroke-miterlimit:10;}
	.st10{fill:url(#SVGID_6_);stroke:#040000;stroke-linecap:round;stroke-linejoin:round;stroke-miterlimit:10;}
	.st11{fill:url(#SVGID_7_);stroke:#040000;stroke-linecap:round;stroke-linejoin:round;stroke-miterlimit:10;}
	.st12{fill:url(#SVGID_8_);stroke:#040000;stroke-linecap:round;stroke-linejoin:round;stroke-miterlimit:10;}
	.st13{fill:url(#SVGID_9_);stroke:#040000;stroke-linecap:round;stroke-linejoin:round;stroke-miterlimit:10;}
	.st14{fill:url(#SVGID_10_);stroke:#040000;stroke-linecap:round;stroke-linejoin:round;stroke-miterlimit:10;}
</style>
<pattern  x="-366.93" y="-364.84" width="72" height="72" patternUnits="userSpaceOnUse" id="_x31_0_lpi_10__x25_" viewBox="72.25 -72 72 72" style="overflow:visible;">
	<g>
		<rect x="72.25" y="-72" class="st0" width="72" height="72"/>
		<g>
			<line class="st1" x1="144" y1="-3.6" x2="216.5" y2="-3.6"/>
			<line class="st1" x1="144" y1="-18" x2="216.5" y2="-18"/>
			<line class="st1" x1="144" y1="-32.4" x2="216.5" y2="-32.4"/>
			<line class="st1" x1="144" y1="-46.8" x2="216.5" y2="-46.8"/>
			<line class="st1" x1="144" y1="-61.2" x2="216.5" y2="-61.2"/>
			<line class="st1" x1="144" y1="-10.8" x2="216.5" y2="-10.8"/>
			<line class="st1" x1="144" y1="-25.2" x2="216.5" y2="-25.2"/>
			<line class="st1" x1="144" y1="-39.6" x2="216.5" y2="-39.6"/>
			<line class="st1" x1="144" y1="-54" x2="216.5" y2="-54"/>
			<line class="st1" x1="144" y1="-68.4" x2="216.5" y2="-68.4"/>
		</g>
		<g>
			<rect x="72.25" y="-72" class="st2" width="72" height="72"/>
			<line class="st1" x1="72" y1="-3.6" x2="144.5" y2="-3.6"/>
			<line class="st1" x1="72" y1="-18" x2="144.5" y2="-18"/>
			<line class="st1" x1="72" y1="-32.4" x2="144.5" y2="-32.4"/>
			<line class="st1" x1="72" y1="-46.8" x2="144.5" y2="-46.8"/>
			<line class="st1" x1="72" y1="-61.2" x2="144.5" y2="-61.2"/>
			<line class="st1" x1="72" y1="-10.8" x2="144.5" y2="-10.8"/>
			<line class="st1" x1="72" y1="-25.2" x2="144.5" y2="-25.2"/>
			<line class="st1" x1="72" y1="-39.6" x2="144.5" y2="-39.6"/>
			<line class="st1" x1="72" y1="-54" x2="144.5" y2="-54"/>
			<line class="st1" x1="72" y1="-68.4" x2="144.5" y2="-68.4"/>
		</g>
		<g>
			<line class="st1" x1="0" y1="-3.6" x2="72.5" y2="-3.6"/>
			<line class="st1" x1="0" y1="-18" x2="72.5" y2="-18"/>
			<line class="st1" x1="0" y1="-32.4" x2="72.5" y2="-32.4"/>
			<line class="st1" x1="0" y1="-46.8" x2="72.5" y2="-46.8"/>
			<line class="st1" x1="0" y1="-61.2" x2="72.5" y2="-61.2"/>
			<line class="st1" x1="0" y1="-10.8" x2="72.5" y2="-10.8"/>
			<line class="st1" x1="0" y1="-25.2" x2="72.5" y2="-25.2"/>
			<line class="st1" x1="0" y1="-39.6" x2="72.5" y2="-39.6"/>
			<line class="st1" x1="0" y1="-54" x2="72.5" y2="-54"/>
			<line class="st1" x1="0" y1="-68.4" x2="72.5" y2="-68.4"/>
		</g>
	</g>
</pattern>
<g id="圖層_1" class="st3">
	<g class="st4">
		
			<pattern  id="SVGID_1_" xlink:href="#_x31_0_lpi_10__x25_" patternTransform="matrix(0.8318 -0.7071 0.5824 0.7071 3037.4905 -7261.6689)">
		</pattern>
		<path class="st5" d="M5.93,22.22c0.88-4.73,2.99-8.37,6.32-10.92c3.15-2.53,6.6-3.79,10.35-3.79c3.86,0,6.92,1.27,9.18,3.8
			c2.3,2.55,3.08,6.2,2.33,10.93l-3.99,22.61c-0.92,4.71-2.98,8.34-6.18,10.9c-3.15,2.53-6.66,3.82-10.53,3.87
			c-3.74-0.05-6.74-1.33-9-3.86c-2.44-2.55-3.26-6.18-2.48-10.88L5.93,22.22z M26.95,22.67c0.77-5.14-1.11-7.76-5.63-7.86
			c-4.58,0.09-7.37,2.71-8.37,7.86L9.11,44.45c-0.83,5.19,1.04,7.81,5.6,7.86c4.55-0.05,7.35-2.67,8.4-7.86L26.95,22.67z"/>
		
			<pattern  id="SVGID_2_" xlink:href="#_x31_0_lpi_10__x25_" patternTransform="matrix(0.8318 -0.7071 0.5824 0.7071 3037.4905 -7261.6689)">
		</pattern>
		<path class="st6" d="M29.37,52.3l23.85-25.08c0.93-1.01,1.61-1.95,2.03-2.82c0.33-0.82,0.55-1.6,0.68-2.33
			c0.34-1.93,0.06-3.61-0.85-5.04c-0.96-1.43-2.53-2.17-4.73-2.22c-1.96,0-3.7,0.65-5.23,1.94c-1.57,1.29-2.69,3.11-3.35,5.46h-7.1
			c0.93-4.26,2.94-7.78,6.02-10.57c3.09-2.71,6.55-4.09,10.38-4.14c4.26,0.05,7.48,1.45,9.65,4.22c2.22,2.75,2.98,6.23,2.28,10.45
			c-0.6,3.38-2.12,6.38-4.59,9.01L38.79,51.88h18.98l-1.29,7.31H28.15L29.37,52.3z"/>
	</g>
</g>
<g id="圖層_2" class="st3">
	<g class="st4">
		
			<pattern  id="SVGID_3_" xlink:href="#_x31_0_lpi_10__x25_" patternTransform="matrix(0.8318 -0.7071 0.5824 0.7071 3038.4905 -7261.8809)">
		</pattern>
		<path class="st7" d="M6.93,22c0.88-4.73,2.99-8.37,6.32-10.92c3.15-2.53,6.6-3.79,10.35-3.79c3.86,0,6.92,1.27,9.18,3.8
			c2.3,2.55,3.08,6.2,2.33,10.93l-3.99,22.61c-0.92,4.71-2.98,8.34-6.18,10.9c-3.15,2.53-6.66,3.82-10.53,3.87
			c-3.74-0.05-6.74-1.33-9-3.86c-2.44-2.55-3.26-6.18-2.48-10.88L6.93,22z M27.95,22.46c0.77-5.14-1.11-7.76-5.63-7.86
			c-4.58,0.09-7.37,2.71-8.37,7.86l-3.84,21.77c-0.83,5.19,1.04,7.81,5.6,7.86c4.55-0.05,7.35-2.67,8.4-7.86L27.95,22.46z"/>
		
			<pattern  id="SVGID_4_" xlink:href="#_x31_0_lpi_10__x25_" patternTransform="matrix(0.8318 -0.7071 0.5824 0.7071 3038.4905 -7261.8809)">
		</pattern>
		<path class="st8" d="M44.38,29.34h2.45c2.43,0,4.44-0.69,6.03-2.09c1.58-1.34,2.56-3.09,2.94-5.23c0.34-2.17-0.04-3.95-1.14-5.34
			c-1.1-1.34-2.71-2.04-4.81-2.08c-1.52,0-3,0.51-4.43,1.52c-1.5,1.01-2.66,2.58-3.49,4.7h-7.12c1.03-3.79,3.08-6.99,6.15-9.59
			c3.02-2.58,6.32-3.89,9.89-3.93c4.51,0.05,7.84,1.53,9.98,4.46c2.04,2.86,2.74,6.24,2.1,10.12c-0.35,1.97-1.03,3.87-2.06,5.7
			c-1.14,1.83-2.89,3.46-5.26,4.89c1.91,1.41,3.17,3.09,3.78,5.06c0.57,1.97,0.66,4.03,0.28,6.19c-0.89,4.8-3,8.59-6.32,11.36
			c-3.29,2.84-7.13,4.28-11.52,4.33c-3.38,0-6.18-1.12-8.39-3.37c-2.21-2.25-3.33-5.5-3.35-9.76h7.12c0.33,1.71,0.99,3.1,1.96,4.16
			c0.99,1.11,2.46,1.66,4.41,1.66c2.09,0,3.98-0.74,5.67-2.22c1.7-1.39,2.79-3.36,3.29-5.92c0.41-2.61,0.02-4.63-1.18-6.06
			c-1.19-1.39-2.88-2.08-5.08-2.08h-3.04L44.38,29.34z"/>
	</g>
</g>
<g id="圖層_3" class="st3">
	<g class="st4">
		
			<pattern  id="SVGID_5_" xlink:href="#_x31_0_lpi_10__x25_" patternTransform="matrix(0.8318 -0.7071 0.5824 0.7071 2996.8362 -7313.0581)">
		</pattern>
		<path class="st9" d="M7.21,21.74c0.88-4.73,2.99-8.37,6.32-10.92c3.15-2.53,6.6-3.79,10.35-3.79c3.86,0,6.92,1.27,9.18,3.8
			c2.3,2.55,3.08,6.2,2.33,10.93l-3.99,22.61c-0.92,4.71-2.98,8.34-6.18,10.9c-3.15,2.53-6.66,3.82-10.53,3.87
			c-3.74-0.05-6.74-1.33-9-3.86c-2.44-2.55-3.26-6.18-2.48-10.88L7.21,21.74z M28.23,22.2c0.77-5.14-1.11-7.76-5.63-7.86
			c-4.58,0.09-7.37,2.71-8.37,7.86l-3.84,21.77c-0.83,5.19,1.04,7.81,5.6,7.86c4.55-0.05,7.35-2.67,8.4-7.86L28.23,22.2z"/>
		
			<pattern  id="SVGID_6_" xlink:href="#_x31_0_lpi_10__x25_" patternTransform="matrix(0.8318 -0.7071 0.5824 0.7071 2996.8362 -7313.0581)">
		</pattern>
		<path class="st10" d="M30.63,44.2L53.7,7.45h7.91L38.36,44.2h12.97l2.6-14.76h7.1l-2.6,14.76h3.98l-1.21,6.88h-3.98l-1.35,7.63
			h-7.1l1.34-7.63l-20.7,0L30.63,44.2z"/>
	</g>
</g>
<g id="圖層_4" class="st3">
	<g class="st4">
		
			<pattern  id="SVGID_7_" xlink:href="#_x31_0_lpi_10__x25_" patternTransform="matrix(0.8068 -0.7006 0.565 0.7006 2790.8616 -7289.2637)">
		</pattern>
		<path class="st11" d="M6.19,22.08c0.85-4.68,2.9-8.29,6.13-10.82c3.05-2.5,6.4-3.76,10.04-3.76c3.75,0,6.72,1.25,8.91,3.76
			c2.23,2.53,2.98,6.14,2.26,10.83l-3.87,22.4c-0.9,4.67-2.89,8.27-6,10.8c-3.06,2.51-6.46,3.78-10.22,3.83
			c-3.63-0.05-6.54-1.32-8.73-3.83c-2.36-2.53-3.16-6.12-2.41-10.78L6.19,22.08z M26.57,22.53c0.75-5.1-1.07-7.69-5.46-7.78
			c-4.44,0.09-7.15,2.69-8.12,7.78L9.27,44.11c-0.8,5.14,1.01,7.74,5.43,7.78c4.41-0.05,7.13-2.64,8.15-7.78L26.57,22.53z"/>
		
			<pattern  id="SVGID_8_" xlink:href="#_x31_0_lpi_10__x25_" patternTransform="matrix(0.8068 -0.7006 0.565 0.7006 2790.8616 -7289.2637)">
		</pattern>
		<path class="st12" d="M37.73,7.93h25.67l-1.25,7.24h-19.2l-2,11.57c2.57-1.86,5.31-2.79,8.2-2.79c1.85,0.05,3.49,0.39,4.92,1.05
			c1.33,0.72,2.36,1.6,3.09,2.65c1.1,1.39,1.79,3.01,2.06,4.84c0.13,1,0.14,2.22,0.03,3.66c-0.12,1.46-0.36,3.26-0.73,5.4
			c-0.57,3.3-1.23,5.83-1.97,7.59c-0.76,1.74-1.8,3.29-3.11,4.63c-1.17,1.32-2.76,2.52-4.75,3.6c-1.96,1.13-4.15,1.72-6.58,1.77
			c-3.26,0-6.07-1.02-8.43-3.06c-2.39-2.09-3.52-5.46-3.38-10.12h6.91c0.07,3.91,2.04,5.89,5.89,5.93c1.65,0,3.04-0.35,4.15-1.05
			c1.06-0.68,1.88-1.56,2.44-2.65c0.59-1.09,1.03-2.28,1.34-3.56c0.26-1.26,0.49-2.48,0.7-3.67c0.55-2.91,0.52-5.27-0.07-7.09
			c-0.34-0.86-0.94-1.55-1.8-2.06c-0.88-0.42-2.03-0.63-3.44-0.63c-1.26,0-2.46,0.3-3.61,0.91c-1.15,0.63-2.27,1.72-3.35,3.28h-6.47
			L37.73,7.93z"/>
	</g>
</g>
<g id="圖層_5">
	<g>
		<g>
			
				<pattern  id="SVGID_9_" xlink:href="#_x31_0_lpi_10__x25_" patternTransform="matrix(0.8631 -0.7165 0.6044 0.7165 3289.6423 -7296.0601)">
			</pattern>
			<path class="st13" d="M6.48,21.93c0.91-4.79,3.1-8.48,6.56-11.06c3.27-2.56,6.85-3.84,10.74-3.84c4.01,0,7.18,1.28,9.53,3.85
				c2.39,2.59,3.19,6.28,2.42,11.08l-4.14,22.9c-0.96,4.77-3.1,8.46-6.42,11.04c-3.27,2.56-6.91,3.87-10.93,3.92
				c-3.88-0.05-7-1.35-9.34-3.91c-2.53-2.58-3.39-6.26-2.57-11.03L6.48,21.93z M28.28,22.4c0.8-5.21-1.15-7.86-5.84-7.96
				c-4.75,0.1-7.65,2.75-8.68,7.96L9.77,44.46c-0.86,5.26,1.08,7.91,5.81,7.96c4.72-0.05,7.63-2.7,8.72-7.96L28.28,22.4z"/>
			
				<pattern  id="SVGID_10_" xlink:href="#_x31_0_lpi_10__x25_" patternTransform="matrix(0.8631 -0.7165 0.6044 0.7165 3289.6423 -7296.0601)">
			</pattern>
			<path class="st14" d="M49.24,15.31l-8.31,5.41l1.43-7.92l8.29-5.35h7.36l-9.38,51.94h-7.36L49.24,15.31z"/>
		</g>
	</g>
</g>
</svg>
