<?xml version="1.0" encoding="utf-8"?>
<!-- Generator: Adobe Illustrator 25.2.0, SVG Export Plug-In . SVG Version: 6.00 Build 0)  -->
<svg version="1.1" id="圖層_1" xmlns="http://www.w3.org/2000/svg" xmlns:xlink="http://www.w3.org/1999/xlink" x="0px" y="0px"
	 viewBox="0 0 255.79 74.21" style="enable-background:new 0 0 255.79 74.21;" xml:space="preserve">
<style type="text/css">
	.st0{fill:none;stroke:#666666;stroke-linecap:round;stroke-linejoin:round;stroke-miterlimit:10;}
</style>
<g>
	<g>
		<path class="st0" d="M10.63,66.31H247.1l0,0c-3.73-19.04-3.73-38.9,0-57.95l0,0H10.63l0,0C14.37,27.41,14.37,47.26,10.63,66.31"/>
		<path class="st0" d="M250.77,67.54c1.11,1.36,0.96,2.65,0.22,3.55c-0.74,0.91-1.79,1.08-2.9-0.27c-1.11-1.36-1.11-4.64-1.11-4.64
			S249.67,66.18,250.77,67.54z"/>
		<path class="st0" d="M6.59,6.69C5.49,5.33,5.63,4.04,6.37,3.14c0.74-0.91,1.79-1.08,2.9,0.27s1.11,4.64,1.11,4.64
			S7.7,8.05,6.59,6.69z"/>
		<path class="st0" d="M6.59,67.54c-1.11,1.36-0.96,2.65-0.22,3.55c0.74,0.91,1.79,1.08,2.9-0.27s1.11-4.64,1.11-4.64
			S7.7,66.18,6.59,67.54z"/>
		<path class="st0" d="M250.77,6.69c1.11-1.36,0.96-2.65,0.22-3.55c-0.74-0.91-1.79-1.08-2.9,0.27c-1.11,1.36-1.11,4.64-1.11,4.64
			S249.67,8.05,250.77,6.69z"/>
	</g>
	<line class="st0" x1="28.42" y1="60.21" x2="228.95" y2="60.21"/>
	<line class="st0" x1="28.42" y1="14.01" x2="228.95" y2="14.01"/>
</g>
</svg>
